<svg width="18" height="18" viewBox="0 0 18 18" fill="none" xmlns="http://www.w3.org/2000/svg">
    <path d="M6.81259 9.96869e-07C6.73046 -0.000145687 6.64911 0.0158968 6.57318 0.0472115C6.49725 0.0785261 6.42824 0.124499 6.37009 0.182501L0.18259 6.37C0.0654221 6.48721 -0.000400543 6.64615 -0.000400543 6.81188C-0.000400543 6.9776 0.0654221 7.13655 0.18259 7.25375C0.782591 7.85375 1.52259 7.98875 2.06134 7.98875C2.28259 7.98875 2.48009 7.96625 2.63634 7.94L6.55384 11.8575C6.45071 12.273 6.3838 12.6967 6.35384 13.1238C6.29634 14.0013 6.39384 15.2325 7.25384 16.0925C7.37104 16.2097 7.52999 16.2755 7.69572 16.2755C7.86144 16.2755 8.02039 16.2097 8.13759 16.0925L11.6738 12.5575L15.6513 16.535C15.8951 16.7788 17.1751 17.6625 17.4188 17.4188C17.6626 17.175 16.7788 15.8938 16.5351 15.6513L12.5576 11.6738L16.0926 8.1375C16.2098 8.0203 16.2756 7.86135 16.2756 7.69563C16.2756 7.5299 16.2098 7.37096 16.0926 7.25375C15.2326 6.39375 14.0013 6.295 13.1238 6.35375C12.6968 6.38368 12.2731 6.45059 11.8576 6.55375L7.94009 2.6375C7.97279 2.44715 7.98951 2.25439 7.99009 2.06125C7.99009 1.52375 7.85509 0.783751 7.25384 0.182501C7.13671 0.0656648 6.97803 3.61456e-05 6.81259 9.96869e-07Z" fill="white"/>
</svg>
